<?xml version="1.0" encoding="utf-8"?>
<!-- Generator: Adobe Illustrator 17.1.0, SVG Export Plug-In . SVG Version: 6.00 Build 0)  -->
<svg version="1.2" baseProfile="tiny" id="Layer_1" xmlns="http://www.w3.org/2000/svg" xmlns:xlink="http://www.w3.org/1999/xlink"
	 x="0px" y="0px" viewBox="0 0 739.81 139.02" xml:space="preserve">
<g>
	<path fill="#FFFFFF" d="M245,90.67c0,9.56-2.16,16.5-6.48,20.82c-4.32,4.32-11.26,6.48-20.82,6.48h-34.12
		c-9.55,0-16.5-2.16-20.82-6.48c-4.32-4.32-6.48-11.26-6.48-20.82V46.99c0-9.55,2.16-16.49,6.48-20.82
		c4.32-4.32,11.26-6.48,20.82-6.48h34.12c9.56,0,16.49,2.16,20.82,6.48c4.32,4.32,6.48,11.26,6.48,20.82V90.67z M220.43,46.99
		c0-5.46-2.73-8.19-8.19-8.19h-23.2c-5.46,0-8.19,2.73-8.19,8.19v43.68c0,5.46,2.73,8.19,8.19,8.19h23.2c5.46,0,8.19-2.73,8.19-8.19
		V46.99z"/>
	<path fill="#FFFFFF" d="M278.44,44.26l1.37,6.83c2.37-1.55,4.91-2.91,7.64-4.1c2.37-1,5-1.93,7.92-2.8c2.91-0.86,5.91-1.3,9.01-1.3
		h6.14c6.19,0,11.15,1.87,14.88,5.6c3.73,3.73,5.6,8.69,5.6,14.88v53.23h-23.89V67.46c0-1.36-0.46-2.5-1.36-3.41
		c-0.91-0.91-2.05-1.36-3.41-1.36h-4.78c-1.73,0-3.55,0.14-5.46,0.41c-1.91,0.27-3.69,0.59-5.32,0.96c-1.91,0.36-3.78,0.82-5.6,1.37
		v51.19h-23.89V44.26H278.44z"/>
	<path fill="#FFFFFF" d="M344.64,21.05h54.6c8.92,0,15.47,2.03,19.66,6.07c4.18,4.05,6.28,10.22,6.28,18.5
		c0,5.46-1.18,9.9-3.55,13.31c-2.37,3.41-5.28,5.8-8.74,7.17c2,0.55,4,1.41,6.01,2.59c2,1.18,3.75,2.78,5.25,4.78
		c1.5,2,2.73,4.44,3.69,7.3c0.96,2.87,1.43,6.17,1.43,9.9c0,8.92-2.09,15.47-6.28,19.66c-4.19,4.19-10.74,6.28-19.66,6.28h-58.69
		V21.05z M400.61,48.35c0-5.46-2.73-8.19-8.19-8.19h-23.21v19.11h23.21c5.46,0,8.19-2.73,8.19-8.19V48.35z M404.7,86.57
		c0-5.46-2.73-8.19-8.19-8.19h-27.3v19.11h27.3c5.46,0,8.19-2.73,8.19-8.19V86.57z"/>
	<path fill="#FFFFFF" d="M513.9,96.13c0,6.83-1.93,12.17-5.8,16.04c-3.87,3.87-9.21,5.8-16.04,5.8h-31.4
		c-6.83,0-12.17-1.93-16.04-5.8c-3.87-3.87-5.8-9.21-5.8-16.04v-31.4c0-6.82,1.93-12.17,5.8-16.04c3.87-3.87,9.21-5.8,16.04-5.8
		h31.4c6.82,0,12.17,1.93,16.04,5.8c3.87,3.87,5.8,9.21,5.8,16.04V96.13z M490.02,66.78c0-3.64-1.82-5.46-5.46-5.46h-16.38
		c-3.64,0-5.46,1.82-5.46,5.46v27.3c0,3.64,1.82,5.46,5.46,5.46h16.38c3.64,0,5.46-1.82,5.46-5.46V66.78z"/>
	<path fill="#FFFFFF" d="M543.25,117.97c-6.19,0-11.15-1.86-14.88-5.6c-3.73-3.73-5.6-8.69-5.6-14.88v-6.14
		c0-6.19,1.86-11.15,5.6-14.88c3.73-3.73,8.69-5.6,14.88-5.6h27.98v-5.24c0-1.31-0.46-2.4-1.37-3.27c-0.91-0.87-2.05-1.31-3.41-1.31
		c-3.64,0-7.58,0-11.81,0s-8.21,0.21-11.94,0.64c-4.37,0.57-8.74,0.85-13.1,0.85V45.69c5-0.77,10.1-1.15,15.29-1.15
		c4.46-0.82,9.33-1.23,14.61-1.23c5.28,0,10.33,0,15.15,0c6.19,0,11.15,1.86,14.88,5.57c3.73,3.71,5.6,8.64,5.6,14.8v52.94h-21.16
		l-1.36-6.83c-2.37,1.55-4.91,2.91-7.64,4.1c-2.37,1-5.01,1.93-7.92,2.8c-2.91,0.86-5.92,1.3-9.01,1.3H543.25z M554.85,98.86
		c1.73,0,3.55-0.14,5.46-0.41c1.91-0.27,3.69-0.59,5.32-0.96c1.91-0.36,3.78-0.82,5.6-1.37v-8.19h-19.79c-1.36,0-2.5,0.46-3.41,1.37
		c-0.91,0.91-1.37,2.05-1.37,3.41v1.37c0,1.36,0.45,2.5,1.37,3.41c0.91,0.91,2.05,1.36,3.41,1.36H554.85z"/>
	<path fill="#FFFFFF" d="M628.56,44.26l1.37,8.87c2.09-1.82,4.41-3.5,6.96-5.05c2.18-1.27,4.75-2.46,7.71-3.55
		c2.96-1.09,6.25-1.64,9.9-1.64h6.14v21.16h-11.6c-2.37,0-4.62,0.23-6.76,0.68c-2.14,0.46-4.03,0.91-5.67,1.37
		c-1.91,0.64-3.69,1.32-5.32,2.05v48.46H607.4V44.26H628.56z"/>
	<path fill="#FFFFFF" d="M718.65,116.6l-1.37-6.83c-2.37,1.55-4.91,2.91-7.64,4.1c-2.37,1-5.01,1.93-7.92,2.8
		c-2.91,0.86-5.92,1.3-9.01,1.3h-6.14c-6.19,0-11.15-1.86-14.88-5.6c-3.73-3.73-5.6-8.69-5.6-14.88V66.1
		c0-6.83,1.93-12.17,5.8-16.04c3.87-3.87,9.21-5.8,16.04-5.8h27.98v-23.2h23.89v95.55H718.65z M715.92,62.68h-20.47
		c-3.64,0-5.46,1.82-5.46,5.46V93.4c0,1.37,0.45,2.5,1.37,3.41c0.91,0.91,2.05,1.36,3.41,1.36h4.78c1.73,0,3.55-0.14,5.46-0.41
		s3.69-0.59,5.32-0.96c1.91-0.36,3.78-0.82,5.6-1.37V62.68z"/>
</g>
<g>
	<path fill="#FFFFFF" d="M132,35.24c-0.76,0.46-1.29,0.82-1.86,1.13C109.42,47.51,88.7,58.68,67.93,69.76
		c-0.92,0.49-2.52,0.66-3.38,0.2C43.48,58.73,22.47,47.41,1.45,36.1c-0.36-0.19-0.69-0.44-1.29-0.83c0.77-0.5,1.33-0.92,1.94-1.25
		C22.74,22.91,43.4,11.81,64.04,0.67c1.26-0.68,2.28-0.99,3.71-0.22c20.99,11.36,42.03,22.65,63.04,33.96
		C131.14,34.6,131.45,34.86,132,35.24z"/>
	<path fill="#FFFFFF" d="M0.13,103.93c1.27-0.72,2.32-1.35,3.4-1.93c7.1-3.83,14.24-7.6,21.3-11.51c1.5-0.83,2.64-0.82,4.14-0.01
		c11.66,6.36,23.39,12.6,35.05,18.96c1.51,0.82,2.64,0.79,4.13-0.02c11.66-6.35,23.36-12.64,35.09-18.88
		c0.86-0.46,2.23-0.9,2.94-0.53c8.56,4.47,17.04,9.09,25.85,13.84c-0.72,0.5-1.19,0.9-1.72,1.19c-20.8,11.2-41.59,22.4-62.43,33.53
		c-0.87,0.46-2.36,0.63-3.17,0.2c-21.22-11.31-42.38-22.71-63.56-34.1C0.87,104.52,0.63,104.31,0.13,103.93z"/>
	<path fill="#FFFFFF" d="M0,68.3c8.01-4.32,15.82-8.58,23.72-12.69c0.7-0.36,2.07,0.12,2.94,0.58c12.39,6.6,24.77,13.21,37.07,19.96
		c1.82,1,3.13,0.83,4.81-0.09c12.26-6.67,24.57-13.22,36.82-19.91c1.6-0.88,2.79-0.84,4.37,0.04c7.35,4.07,14.77,8,22.48,12.14
		c-1.02,0.58-1.78,1.04-2.56,1.46c-20.58,11.07-41.16,22.13-61.72,33.21c-1.18,0.63-2.08,0.92-3.44,0.18
		C43.57,91.86,22.61,80.62,1.67,69.35C1.16,69.07,0.69,68.73,0,68.3z"/>
</g>
</svg>
